<svg width="18" height="18" viewBox="0 0 18 18" fill="none" xmlns="http://www.w3.org/2000/svg">
<path d="M17.6414 3.18005H0.358558C0.160558 3.18005 0 3.34058 0 3.53861V12.9861C0 13.9973 0.822655 14.82 1.83392 14.82H16.1661C17.1773 14.82 18 13.9973 18 12.9861V3.53861C18 3.34058 17.8394 3.18005 17.6414 3.18005ZM17.2828 12.986C17.2828 13.6018 16.7819 14.1028 16.1661 14.1028H1.83392C1.21813 14.1028 0.717151 13.6018 0.717151 12.986V4.32091L8.77284 10.9157C8.83893 10.9697 8.91944 10.9968 8.99998 10.9968C9.08039 10.9968 9.16079 10.9698 9.22681 10.9159L15.4602 5.82426C15.6136 5.69896 15.6363 5.47312 15.5111 5.31973C15.3858 5.16635 15.1599 5.14356 15.0066 5.2689L9.00023 10.175L1.33168 3.89717H17.2828V12.986V12.986Z" fill="#0C143B"/>
<path d="M16.5207 4.49504C16.3954 4.34166 16.1695 4.31888 16.0162 4.44417L15.9086 4.53203C15.7552 4.65732 15.7325 4.88317 15.8577 5.03655C15.9286 5.12332 16.0317 5.16829 16.1356 5.16829C16.2154 5.16829 16.2956 5.14178 16.3622 5.08743L16.4698 4.99957C16.6232 4.87431 16.6459 4.64843 16.5207 4.49504Z" fill="#0C143B"/>
</svg>
