<svg width="18" height="18" viewBox="0 0 18 18" fill="none" xmlns="http://www.w3.org/2000/svg">
<path d="M12.9197 11.4525L12.5939 11.8052L12.9331 12.145L17.2208 16.4415C17.2284 16.4502 17.232 16.4605 17.232 16.471C17.232 16.482 17.2283 16.4864 17.2267 16.4881L17.219 16.4958L17.2161 16.4989C17.2153 16.4992 17.2143 16.4994 17.2132 16.4997C17.2123 16.4999 17.2115 16.4999 17.2111 16.5C17.2109 16.4999 17.2106 16.4998 17.2101 16.4996C17.2086 16.499 17.203 16.4964 17.1948 16.4881L12.8575 12.1509L12.5513 11.8447L12.2046 12.104C11.3112 12.772 10.2102 13.1657 9.01132 13.1657C6.068 13.1657 3.67847 10.7684 3.67847 7.83285C3.67847 4.89734 6.068 2.5 9.01132 2.5C11.9546 2.5 14.3442 4.89734 14.3442 7.83285C14.3442 9.2307 13.7983 10.5014 12.9197 11.4525ZM9.01132 2.55572C6.09528 2.55572 3.73419 4.92679 3.73419 7.83285C3.73419 10.7389 6.09528 13.11 9.01132 13.11C11.9268 13.11 14.2884 10.7483 14.2884 7.83285C14.2884 4.91681 11.9174 2.55572 9.01132 2.55572Z" stroke="#0C143B"/>
</svg>
