<svg width="30" height="30" viewBox="0 0 30 30" fill="none" xmlns="http://www.w3.org/2000/svg">
<path d="M23.0264 22.1662L18.2175 20.1989C17.6864 19.9819 17.3438 19.4709 17.3438 18.8972V18.5606C18.7861 17.5641 19.8877 16.1578 20.512 14.5312H20.625C21.9173 14.5312 22.9688 13.4798 22.9688 12.1875C22.9688 11.895 22.9083 11.6175 22.8098 11.3588L23.0095 11.1656C23.4516 10.7489 23.7333 10.2089 23.8008 10.0725C24.3966 9.13031 24.5367 7.99172 24.1847 6.94266C23.8612 5.97656 23.1539 5.18813 22.223 4.74281C22.0716 3.74484 21.5166 2.85 20.6714 2.25516C19.8263 1.65984 18.7777 1.425 17.7558 1.59891C17.032 0.8775 16.043 0.46875 15 0.46875C13.957 0.46875 12.968 0.8775 12.2438 1.59891C11.2228 1.42687 10.1737 1.66031 9.32859 2.25516C8.48297 2.85 7.92844 3.74484 7.77656 4.74281C6.84609 5.18813 6.13875 5.97703 5.81484 6.94219C5.46281 7.99125 5.60344 9.13031 6.19875 10.0725C6.26484 10.2066 6.53719 10.7292 6.96516 11.1422L7.20234 11.317C7.09453 11.587 7.03125 11.8795 7.03125 12.1875C7.03125 13.4798 8.08266 14.5312 9.375 14.5312H9.48797C10.1123 16.1583 11.2139 17.5641 12.6562 18.5606V18.8972C12.6562 19.4709 12.3136 19.9814 11.7825 20.1984L6.97359 22.1658C4.16109 23.3166 2.34375 26.0241 2.34375 29.0625V29.5312H27.6562V29.0625C27.6562 26.0241 25.8389 23.3166 23.0264 22.1662ZM19.1784 23.7019L17.273 25.1311L18.5358 21.3422L18.8025 21.4514L19.1784 23.7019ZM11.197 21.4514L11.4637 21.3422L12.7266 25.1311L10.8211 23.7019L11.197 21.4514ZM12.7748 25.2759L13.8811 28.5938H13.7878L11.8533 26.6592L12.7748 25.2759ZM12.3281 20.9719C12.4327 20.9175 12.532 20.8566 12.6258 20.7886L15 23.1628L17.3742 20.7886C17.468 20.8566 17.5669 20.9175 17.6719 20.9719L15.1312 28.5938H14.8687L12.3281 20.9719ZM17.2252 25.2759L18.1467 26.6592L16.2122 28.5938H16.1189L17.2252 25.2759ZM20.0658 12.5859C20.032 12.8067 19.9875 13.0289 19.9294 13.2633C19.7503 13.4742 19.4953 13.5938 19.2188 13.5938H17.2753C16.9177 13.5938 16.5966 13.395 16.4367 13.0758L16.2272 12.6562H13.7728L13.5633 13.0758C13.4034 13.395 13.0819 13.5938 12.7247 13.5938H10.7812C10.5047 13.5938 10.2497 13.4742 10.0706 13.2633C10.0125 13.0289 9.96797 12.8063 9.93422 12.5859H9.93328C9.87516 12.2025 9.84375 11.8111 9.84375 11.4145V10.3125H20.1562V11.4145C20.1562 11.8116 20.1248 12.2025 20.0662 12.5859H20.0658ZM20.1562 9.375H17.0691L18.3539 8.09016L20.1562 9.17156V9.375ZM9.84375 9.375V9.17156L11.6461 8.08969L12.9309 9.375H9.84375ZM13.2811 9.375L15 8.08594L16.7189 9.375H13.2811ZM20.8191 13.5741C20.8467 13.4663 20.8702 13.3566 20.8936 13.2473C20.9109 13.1672 20.9269 13.0875 20.9414 13.0083C21.038 12.4889 21.0938 11.9573 21.0938 11.4145V10.868C21.638 11.062 22.0312 11.5777 22.0312 12.188C22.0312 12.8967 21.502 13.4784 20.8191 13.5741ZM7.59469 10.4461C7.25203 10.1048 7.03688 9.65063 7.035 9.64688L7.00406 9.59016C6.54984 8.88422 6.44063 8.02781 6.70453 7.24031C6.96938 6.44906 7.58156 5.81484 8.38359 5.50031L8.65875 5.39297L8.67984 5.09812C8.74031 4.26797 9.17344 3.51094 9.86859 3.02156C10.5684 2.52891 11.4548 2.36203 12.2977 2.56594L12.5752 2.6325L12.7617 2.41734C13.3186 1.77469 14.1342 1.40625 15 1.40625C15.8658 1.40625 16.6814 1.77469 17.2383 2.41734L17.4248 2.6325L17.7023 2.56594C18.5447 2.36156 19.4311 2.52891 20.1319 3.02156C20.8266 3.51094 21.2597 4.2675 21.3202 5.09812L21.3412 5.39297L21.6164 5.50031C22.4184 5.81484 23.0306 6.44906 23.2955 7.24078C23.5594 8.02781 23.4502 8.88422 22.9959 9.59016L22.965 9.64688C22.9627 9.65156 22.7302 10.1414 22.3622 10.4883L22.2975 10.5506C21.9759 10.222 21.5606 9.98625 21.0933 9.89109V8.64094L18.2081 6.91031L16.8309 8.2875L15 6.91406L13.1691 8.2875L11.7919 6.91031L8.90625 8.64094V9.89109C8.44641 9.98484 8.03531 10.2136 7.71562 10.5342L7.59469 10.4461ZM7.96875 12.1875C7.96875 11.5772 8.36203 11.0616 8.90625 10.8675V11.4141C8.90625 11.9564 8.96203 12.4884 9.05812 13.0073C9.07312 13.0866 9.08859 13.1667 9.10641 13.2473C9.12984 13.3566 9.15328 13.4658 9.18094 13.5736C8.49797 13.4784 7.96875 12.8967 7.96875 12.1875ZM10.4887 14.505C10.5848 14.5205 10.6823 14.5312 10.7812 14.5312H12.7247C13.402 14.5312 14.0147 14.1745 14.3489 13.5938H15.6516C15.9858 14.1745 16.5984 14.5312 17.2758 14.5312H19.2188C19.3177 14.5312 19.4152 14.5205 19.5112 14.505C18.6727 16.4362 17.0681 17.9878 15 18.7228C12.9319 17.9878 11.3269 16.4362 10.4887 14.505ZM14.8519 19.6631L15 19.7128L15.1481 19.6636C15.592 19.5155 16.0177 19.3345 16.4227 19.1236C16.4564 19.4742 16.5661 19.8042 16.7405 20.0967L15 21.8372L13.2591 20.0963C13.4334 19.8038 13.5431 19.4738 13.5769 19.1231C13.9819 19.3341 14.408 19.5155 14.8519 19.6631ZM7.32891 23.0344L10.177 21.8691L9.80344 24.1106L11.5514 25.4217L10.6462 26.7787L12.4622 28.5938H7.96875V25.7812H7.03125V28.5938H3.29766C3.4725 26.1305 5.01563 23.9803 7.32891 23.0344ZM22.9688 28.5938V25.7812H22.0312V28.5938H17.5378L19.3533 26.7783L18.4481 25.4212L20.1961 24.1102L19.8225 21.8686L22.6706 23.0339C24.9839 23.9803 26.527 26.13 26.7019 28.5933H22.9688V28.5938Z" fill="white"/>
<path d="M16.875 15H15.9375C15.9375 15.517 15.517 15.9375 15 15.9375C14.483 15.9375 14.0625 15.517 14.0625 15H13.125C13.125 16.0341 13.9659 16.875 15 16.875C16.0341 16.875 16.875 16.0341 16.875 15Z" fill="white"/>
</svg>
